<svg width="255" height="48" viewBox="0 0 255 48" fill="none" xmlns="http://www.w3.org/2000/svg">
<g clip-path="url(#clip0_522_2408)">
<path d="M78.7924 41.6173C78.863 41.7573 78.8982 41.908 78.8982 42.0666C78.8982 42.6195 78.4488 43.0689 77.8948 43.0689C77.3427 43.0689 76.8924 42.6195 76.8924 42.0666C76.8924 41.8963 76.9356 41.7268 77.0187 41.5791L76.6702 41.3853C76.5548 41.5928 76.4932 41.8278 76.4932 42.0666C76.4932 42.8399 77.1225 43.4683 77.8948 43.4683C78.6681 43.4683 79.2974 42.8399 79.2974 42.0666C79.2974 41.8453 79.2476 41.634 79.1487 41.4382L78.7924 41.6173Z" fill="#A8263C"/>
<path d="M78.0946 37.3974H77.6963V42.1331H78.0946V37.3974Z" fill="#A8263C"/>
<path d="M57.2266 38.3116V37.8721H56.5806V39.3775V40.1537V40.5972V41.3851V42.8799H57.2266V42.4404H57.0211V38.3116H57.2266Z" fill="#515C5C"/>
<path d="M54.712 40.1537V37.8721H54.0669V38.3116H54.2725V42.4404H54.0669V42.8799H54.712V40.5972H55.9453V40.1537H54.712Z" fill="#515C5C"/>
<path d="M58.5591 38.3116H58.745V42.4404H58.5591V42.8799H61.4936V42.2544H61.0541V42.4404H59.1855V40.5972H60.5676V40.1537H59.1855V38.3116H61.0541V38.4976H61.4936V37.8721H58.5591V38.3116Z" fill="#515C5C"/>
<path d="M65.3237 42.4404H63.455V37.8721H62.8101V38.3116H63.0155V42.4404H62.8101V42.8799H65.7641V42.2544H65.3237V42.4404Z" fill="#515C5C"/>
<path d="M69.6098 42.4404H67.7422V37.8721H67.0962V38.3116H67.3018V42.4404H67.0962V42.8799H70.0504V42.2544H69.6098V42.4404Z" fill="#515C5C"/>
<path d="M73.497 41.9334C73.2121 42.3357 72.8852 42.5314 72.4946 42.5314C72.105 42.5314 71.7771 42.3357 71.4923 41.9324C71.1986 41.5204 71.0499 41.0113 71.0499 40.4221C71.0499 39.8318 71.1986 39.3229 71.4923 38.9107V38.9097C71.7771 38.5075 72.105 38.3117 72.4946 38.3117C72.8842 38.3117 73.2121 38.5075 73.497 38.9107C73.7906 39.3229 73.9394 39.8318 73.9394 40.4221C73.9394 41.0113 73.7906 41.5204 73.497 41.9334ZM72.4946 37.8722C71.967 37.8722 71.5129 38.1297 71.1467 38.6386C70.7905 39.1329 70.6104 39.733 70.6104 40.4221C70.6104 41.1102 70.7905 41.7102 71.1467 42.2044C71.5129 42.7135 71.967 42.9709 72.4946 42.9709C73.0232 42.9709 73.4774 42.7135 73.8464 42.2044C74.2008 41.7102 74.3798 41.1102 74.3798 40.4221C74.3798 39.733 74.2008 39.1329 73.8454 38.6386C73.4774 38.1297 73.0232 37.8722 72.4946 37.8722Z" fill="#515C5C"/>
<path d="M83.8187 40.5817C83.5692 40.4231 83.3078 40.2851 83.0415 40.1705C82.7509 40.0472 82.4758 39.8983 82.2242 39.7291C81.7809 39.4305 81.7466 39.273 81.7466 39.2318C81.7466 39.0223 81.8591 38.8247 82.0882 38.6277C82.3427 38.4134 82.6255 38.3087 82.9535 38.3087C83.155 38.3087 83.3519 38.3537 83.5369 38.4419C83.7023 38.5221 83.8432 38.6277 83.9567 38.758L83.9518 39.0849H84.3972L84.4012 38.6014L84.3523 38.5524C84.1946 38.34 83.987 38.1708 83.7375 38.0513C83.4889 37.9299 83.2246 37.8683 82.9535 37.8683C82.5139 37.8683 82.1234 38.0141 81.7916 38.2999C81.4695 38.5779 81.3062 38.8912 81.3062 39.2318C81.3062 39.5273 81.5636 39.8338 82.0911 40.1675C82.3398 40.3252 82.601 40.4632 82.8683 40.5777C83.1581 40.702 83.4321 40.8509 83.6827 41.0192C84.1281 41.3187 84.1623 41.4762 84.1623 41.5174C84.1623 41.7269 84.0507 41.9245 83.8207 42.1213C83.5662 42.3357 83.2824 42.4405 82.9535 42.4405C82.7352 42.4405 82.5248 42.3856 82.327 42.277C82.1792 42.1976 82.052 42.0969 81.9492 41.9765V41.6416H81.5029L81.5087 42.0734L81.5224 42.1438L81.5547 42.1879C81.6965 42.3777 81.8817 42.5364 82.1059 42.6606H82.1067C82.3711 42.8064 82.6559 42.8799 82.9535 42.8799C83.394 42.8799 83.7865 42.7351 84.1183 42.4482C84.4393 42.1713 84.6028 41.857 84.6028 41.5174C84.6028 41.2208 84.3463 40.9145 83.8187 40.5817Z" fill="#515C5C"/>
<path d="M88.8026 41.9334C88.5177 42.3357 88.1899 42.5314 87.8003 42.5314C87.4107 42.5314 87.0828 42.3357 86.7979 41.9324C86.5042 41.5204 86.3555 41.0113 86.3555 40.4221C86.3555 39.8318 86.5042 39.3229 86.7979 38.9107V38.9097C87.0828 38.5075 87.4107 38.3117 87.8003 38.3117C88.1899 38.3117 88.5177 38.5075 88.8026 38.9107C89.0962 39.3229 89.245 39.8318 89.245 40.4221C89.245 41.0113 89.0962 41.5204 88.8026 41.9334ZM87.8003 37.8722C87.2717 37.8722 86.8185 38.1297 86.4524 38.6386C86.0961 39.1329 85.915 39.733 85.915 40.4221C85.915 41.1102 86.0961 41.7102 86.4524 42.2044C86.8185 42.7135 87.2717 42.9709 87.8003 42.9709C88.3279 42.9709 88.783 42.7135 89.151 42.2044C89.5053 41.7102 89.6845 41.1102 89.6845 40.4221C89.6845 39.733 89.5053 39.1329 89.151 38.6386C88.783 38.1297 88.3279 37.8722 87.8003 37.8722Z" fill="#515C5C"/>
<path d="M93.5116 42.4404H91.643V37.8721H90.9971V38.3116H91.2026V42.4404H90.9971V42.8799H93.9521V42.2544H93.5116V42.4404Z" fill="#515C5C"/>
<path d="M97.4724 37.8722H96.8694V38.3117H97.0055L95.5362 42.4405H95.2847V42.8799H95.8456L96.2361 41.7846H97.6926L97.5115 41.3442H96.3936L97.3196 38.7463L98.2535 41.3442H98.2466L98.4061 41.7846H98.4092L98.8035 42.8799H99.3635V42.4405H99.1119L97.4724 37.8722Z" fill="#515C5C"/>
<path d="M103.132 39.8837C102.95 40.0658 102.737 40.1539 102.48 40.1539H101.315V38.3087H102.48C102.737 38.3087 102.95 38.3968 103.132 38.5799C103.314 38.7619 103.403 38.9753 103.403 39.2318C103.403 39.4882 103.314 39.7007 103.132 39.8837ZM103.843 39.2318C103.843 38.857 103.708 38.5329 103.442 38.2706C103.179 38.0033 102.855 37.8683 102.48 37.8683H100.673V38.3087H100.876V42.4404H100.673V42.8799H101.315V40.5943H102.108L103.305 42.8799H103.843V42.4404H103.572L102.603 40.5894C102.926 40.5631 103.208 40.4299 103.441 40.194C103.708 39.9306 103.843 39.6066 103.843 39.2318Z" fill="#515C5C"/>
<path d="M107.35 41.9529L105.732 37.8721H105.143V38.3116H105.345V42.4404H105.143V42.8799H105.785V39.1994L107.243 42.8799H107.456L108.912 39.2005V42.8799H109.557V42.4404H109.352V38.3116H109.557V37.8721H108.965L107.35 41.9529Z" fill="#515C5C"/>
<path d="M113.081 37.8722H112.478V38.3117H112.614L111.145 42.4405H110.893V42.8799H111.454L111.845 41.7846H113.299L113.118 41.3442H112.003L112.929 38.7463L113.862 41.3442H113.852L114.012 41.7846H114.018L114.412 42.8799H114.973V42.4405H114.72L113.081 37.8722Z" fill="#515C5C"/>
<path d="M119.562 38.3116V37.8721H118.92V41.804L116.858 37.8721H116.279V38.3116H116.484V42.4404H116.279V42.8799H116.924V38.9449L118.985 42.8799H119.562V42.4404H119.36V38.3116H119.562Z" fill="#515C5C"/>
<path d="M62.8187 26.7741C62.5143 26.2201 62.9019 25.5828 63.5392 25.5828C64.3712 25.5828 65.1474 26.0262 65.5351 26.7741L66.92 29.324C67.2255 29.8506 66.8095 30.5162 66.1996 30.5162C65.3411 30.5162 64.5649 30.0444 64.1774 29.324L62.8187 26.7741ZM73.4606 14.6629C74.1262 14.6629 74.6802 15.1895 74.6802 15.8826C74.6802 16.5482 74.1262 17.0748 73.4606 17.0748H66.2555C66.0342 17.0748 65.8953 17.3244 66.0058 17.5457L73.7934 30.6826C74.0988 31.2093 73.7102 31.8738 73.1004 31.8738C72.242 31.8738 71.4383 31.4304 70.9949 30.6826L64.0658 18.9317C63.9552 18.7379 63.6507 18.7379 63.5392 18.9317L57.4146 30.6826C57.0271 31.4304 56.2782 31.8738 55.4472 31.8738C54.8374 31.8738 54.4497 31.2366 54.7267 30.6826L61.5717 17.5457C61.6823 17.3519 61.5443 17.0748 61.2947 17.0748H54.0063C53.3407 17.0748 52.7866 16.5482 52.7866 15.8826C52.7866 15.1895 53.3407 14.6629 54.0063 14.6629H61.9878C62.2921 14.6629 62.5143 14.4144 62.5143 14.1373V10.0909C62.5143 9.42523 63.0683 8.89859 63.734 8.89859C64.3985 8.89859 64.9526 9.42523 64.9526 10.0909V14.1373C64.9526 14.4144 65.1748 14.6629 65.4793 14.6629H73.4606Z" fill="#515C5C"/>
<path d="M94.1675 15.1073C94.1675 15.4118 94.4162 15.6613 94.7215 15.6613H101.373C101.677 15.6613 101.927 15.4118 101.927 15.1073V14.7188C101.927 14.4418 101.677 14.1647 101.373 14.1647H94.7215C94.4162 14.1647 94.1675 14.4418 94.1675 14.7188V15.1073ZM101.927 11.2547C101.927 10.9776 101.677 10.7006 101.373 10.7006H94.7215C94.4162 10.7006 94.1675 10.9776 94.1675 11.2547V11.6423C94.1675 11.9203 94.4162 12.1973 94.7215 12.1973H101.373C101.677 12.1973 101.927 11.9203 101.927 11.6423V11.2547ZM101.899 8.73322C103.007 8.73322 103.867 9.59165 103.867 10.7281V15.6613C103.867 16.7695 103.007 17.6288 101.899 17.6288H94.1949C93.086 17.6288 92.2275 16.7695 92.2275 15.6613V10.7281C92.2275 9.59165 93.086 8.73322 94.1949 8.73322H101.899ZM105.64 19.8185C105.64 20.3999 105.197 20.8434 104.616 20.8434H95.165C94.8595 20.8434 94.5277 21.0381 94.4162 21.37L94.2507 21.8966C94.1675 22.1462 94.333 22.4516 94.6384 22.4516H103.313C104.422 22.4516 105.253 23.3375 105.197 24.419L104.837 31.4304C104.809 31.9845 104.393 32.373 103.839 32.373C103.34 32.373 102.925 31.957 102.953 31.4304L103.285 24.9173C103.285 24.6128 103.036 24.3358 102.73 24.3358H102.122C101.816 24.3358 101.483 24.557 101.4 24.8899L100.07 29.8231C99.9035 30.3498 99.4327 30.7375 98.8512 30.7375C98.3521 30.7375 98.0193 30.3224 98.1583 29.8231L99.4885 24.8899C99.5433 24.6403 99.3495 24.3358 99.0451 24.3358H97.9086C97.6043 24.3358 97.2988 24.557 97.2156 24.8899L95.8579 29.8231C95.719 30.3498 95.2199 30.7375 94.6384 30.7375C94.1675 30.7375 93.8347 30.3224 93.9453 29.8231L95.2756 24.8899C95.3588 24.6403 95.165 24.3358 94.8595 24.3358H94.0011C93.6683 24.3358 93.3639 24.557 93.2524 24.8899L92.6425 26.7466C92.4487 27.3007 91.9221 27.7167 91.3123 27.7167C90.8141 27.7167 90.4812 27.2459 90.6476 26.7466L92.4487 21.3151C92.532 21.0929 92.3655 20.8434 92.116 20.8434H91.3954C90.8141 20.8434 90.3707 20.3999 90.3707 19.8185C90.3707 19.2645 90.8141 18.821 91.3954 18.821H104.616C105.197 18.821 105.64 19.2645 105.64 19.8185ZM81.7236 11.005C81.7236 9.89701 82.6105 9.03765 83.7195 9.03765H87.5712C88.6245 9.03765 89.3448 9.95186 89.151 10.9776L88.2368 15.2453C88.1536 15.5782 88.1536 15.9384 88.2642 16.2712L88.9014 18.5157C89.2616 19.7901 89.4281 21.1213 89.4281 22.4516V24.3906C89.4281 25.389 88.6802 26.1643 87.6817 26.1643H87.0446C86.3799 26.1643 85.9082 25.666 85.9082 25.0288V24.8899C85.9082 24.3358 86.3242 23.9199 86.9066 23.9199C87.0446 23.9199 87.211 23.7818 87.211 23.6155V21.3151C87.211 20.9549 87.1552 20.5947 87.0719 20.2619L86.3515 17.7679C85.9913 16.4924 85.9639 15.1347 86.2135 13.8603L86.6569 11.8087C86.7117 11.5601 86.4905 11.2547 86.1851 11.2547H84.5505C84.2451 11.2547 83.9681 11.5316 83.9681 11.8371V31.264C83.9681 31.9022 83.4973 32.373 82.8601 32.373C82.2228 32.373 81.7236 31.9022 81.7236 31.264V11.005Z" fill="#515C5C"/>
<path d="M124.59 18.8212C124.59 19.153 124.7 19.5132 124.922 19.7903L133.098 30.4047C133.514 30.9313 133.153 31.6802 132.488 31.6802C131.463 31.6802 130.493 31.2093 129.883 30.4047L123.675 22.3401C123.509 22.1463 123.203 22.1463 123.037 22.3685L117.273 30.4047C116.719 31.2093 115.776 31.6802 114.806 31.6802C114.141 31.6802 113.753 30.9313 114.141 30.4047L121.734 19.8186C121.929 19.5416 122.04 19.2088 122.04 18.8486V10.1741C122.04 9.4812 122.622 8.89878 123.314 8.89878C124.007 8.89878 124.59 9.4812 124.59 10.1741V18.8212Z" fill="#515C5C"/>
<path d="M154.524 28.8807C154.524 29.1861 154.775 29.4356 155.051 29.4356H161.62C162.257 29.4356 162.756 29.934 162.756 30.5436C162.756 31.1809 162.257 31.6802 161.62 31.6802H145.157C144.548 31.6802 144.049 31.1809 144.049 30.5436C144.049 29.934 144.548 29.4356 145.157 29.4356H151.753C152.058 29.4356 152.28 29.1861 152.28 28.8807V26.1644C152.28 25.86 152.058 25.6104 151.753 25.6104H146.903C146.266 25.6104 145.767 25.1122 145.767 24.4749C145.767 23.8642 146.266 23.366 146.903 23.366H151.753C152.058 23.366 152.28 23.1163 152.28 22.8118V20.6496C152.28 20.3726 152.058 20.123 151.753 20.123H148.178C147.568 20.123 147.069 19.6248 147.069 19.015C147.069 18.3777 147.568 17.8786 148.178 17.8786H158.682C159.319 17.8786 159.818 18.3777 159.818 19.015C159.818 19.6248 159.319 20.123 158.682 20.123H155.051C154.775 20.123 154.524 20.3726 154.524 20.6496V22.8118C154.524 23.1163 154.775 23.366 155.051 23.366H159.901C160.538 23.366 161.037 23.8642 161.037 24.4749C161.037 25.1122 160.538 25.6104 159.901 25.6104H155.051C154.775 25.6104 154.524 25.86 154.524 26.1644V28.8807ZM153.832 12.2248C153.61 12.031 153.25 12.031 153.028 12.2521L146.654 18.2113C145.822 18.9866 144.741 19.4299 143.605 19.4299C143.024 19.4299 142.691 18.599 143.134 18.2113L151.947 9.92456C152.75 9.14835 154.053 9.14835 154.885 9.89719L164.003 18.2113C164.474 18.6548 164.169 19.4299 163.531 19.4299C162.367 19.4299 161.259 18.9866 160.4 18.2113L153.832 12.2248Z" fill="#515C5C"/>
<path d="M176.684 16.1879C176.379 16.1879 176.074 16.4649 176.074 16.7419V19.098C176.074 19.4023 176.379 19.652 176.684 19.652H182.476C182.781 19.652 183.003 19.3749 182.975 19.098L182.67 16.7419C182.643 16.4092 182.337 16.1879 182.033 16.1879H176.684ZM176.684 11.282C176.379 11.282 176.074 11.5316 176.074 11.8369V13.2778C176.074 13.5822 176.379 13.8602 176.684 13.8602H189.017C189.321 13.8602 189.571 13.5822 189.571 13.2778V11.8369C189.571 11.5316 189.321 11.282 189.017 11.282H176.684ZM192.148 19.652C192.814 19.652 193.312 20.1502 193.312 20.8158C193.312 21.4815 192.814 21.9796 192.148 21.9796H186.966C186.717 21.9796 186.55 22.2851 186.661 22.5062L191.178 31.0142C191.455 31.5694 191.068 32.2065 190.485 32.2065C189.627 32.2065 188.878 31.7357 188.49 31.0142L183.973 22.5062C183.807 22.1744 183.474 21.9796 183.141 21.9796H176.684C176.379 21.9796 176.074 22.2566 176.074 22.562V28.3264C176.074 28.6309 176.379 28.8531 176.656 28.8257L179.566 28.4096C180.204 28.3264 180.73 28.7698 180.73 29.4071C180.73 30.1 180.232 30.6825 179.566 30.7648L175.714 31.3197C174.661 31.4861 173.746 30.7099 173.746 29.6293V10.8943C173.746 9.78629 174.633 8.89851 175.742 8.89851H189.931C191.068 8.89851 191.927 9.78629 191.927 10.8943V14.2204C191.927 15.3284 191.068 16.1879 189.931 16.1879H185.524C185.247 16.1879 184.998 16.4649 185.026 16.7419L185.331 19.098C185.386 19.4298 185.663 19.652 185.968 19.652H192.148Z" fill="#515C5C"/>
<path d="M217.109 18.3218C216.665 18.3218 216.305 17.9616 216.305 17.5181C216.305 17.0474 216.665 16.6862 217.109 16.6862H220.047C220.49 16.6862 220.878 17.0474 220.878 17.5181C220.878 17.9616 220.49 18.3218 220.047 18.3218H217.109ZM220.102 14.4975C220.518 14.4975 220.878 14.8293 220.878 15.2453C220.878 15.6887 220.518 16.0216 220.102 16.0216H217.081C216.665 16.0216 216.305 15.6887 216.305 15.2453C216.305 14.8293 216.665 14.4975 217.081 14.4975H220.102ZM214.476 26.5527C214.476 26.8299 214.725 27.0794 215.03 27.0794H219.742C220.047 27.0794 220.296 26.8299 220.296 26.5527V25.8323C220.296 25.527 220.047 25.3058 219.742 25.3058H215.03C214.725 25.3058 214.476 25.527 214.476 25.8323V26.5527ZM219.742 23.3657C220.047 23.3657 220.324 23.0887 220.324 22.7833V22.0903C220.324 21.7859 220.047 21.5363 219.742 21.5363H215.03C214.725 21.5363 214.448 21.7859 214.448 22.0903V22.7833C214.448 23.0887 214.725 23.3657 215.03 23.3657H219.742ZM206.661 26.5527C206.661 26.8299 206.91 27.0794 207.187 27.0794H211.899C212.204 27.0794 212.425 26.8299 212.425 26.5527V25.8323C212.425 25.527 212.204 25.3058 211.899 25.3058H207.187C206.91 25.3058 206.661 25.527 206.661 25.8323V26.5527ZM212.453 22.0903C212.453 21.7859 212.204 21.5363 211.899 21.5363H207.187C206.91 21.5363 206.633 21.7859 206.633 22.0903V22.7833C206.633 23.0887 206.91 23.3657 207.187 23.3657H211.899C212.204 23.3657 212.453 23.0887 212.453 22.7833V22.0903ZM206.883 18.3218C206.411 18.3218 206.051 17.9616 206.051 17.5181C206.051 17.0474 206.411 16.6862 206.883 16.6862H209.848C210.291 16.6862 210.652 17.0474 210.652 17.5181C210.652 17.9616 210.291 18.3218 209.848 18.3218H206.883ZM209.876 14.4975C210.319 14.4975 210.652 14.8293 210.652 15.2453C210.652 15.6887 210.319 16.0216 209.876 16.0216H206.827C206.411 16.0216 206.051 15.6887 206.051 15.2453C206.051 14.8293 206.411 14.4975 206.827 14.4975H209.876ZM215.03 28.9089C214.725 28.9089 214.448 29.1575 214.448 29.4629V29.5735C214.448 29.8506 214.725 30.1275 215.03 30.1275H222.735C223.289 30.1275 223.732 30.571 223.732 31.1533C223.732 31.7074 223.289 32.1509 222.735 32.1509H214.448C213.34 32.1509 212.453 31.2914 212.453 30.1833V29.4629C212.453 29.1575 212.204 28.9089 211.899 28.9089H206.827C205.719 28.9089 204.859 28.022 204.859 26.913V21.7301C204.859 20.622 205.719 19.7352 206.827 19.7352H220.129C221.238 19.7352 222.098 20.622 222.098 21.7301V26.913C222.098 28.022 221.238 28.9089 220.129 28.9089H215.03ZM214.393 11.1988C214.393 11.5042 214.642 11.7255 214.947 11.7255H222.652C223.761 11.7255 224.675 12.6406 224.675 13.7486V15.5781C224.675 16.1047 224.259 16.5481 223.732 16.5481C223.206 16.5481 222.762 16.1047 222.762 15.5781V14.1921C222.762 13.915 222.541 13.6655 222.236 13.6655H214.947C214.642 13.6655 214.393 13.915 214.393 14.1921V17.712C214.393 18.2386 213.977 18.6546 213.451 18.6546C212.952 18.6546 212.536 18.2386 212.536 17.712V14.1921C212.536 13.915 212.287 13.6655 211.981 13.6655H204.72C204.443 13.6655 204.194 13.915 204.194 14.1921V15.5781C204.194 16.1047 203.75 16.5481 203.225 16.5481C202.698 16.5481 202.282 16.1047 202.282 15.5781V13.7486C202.282 12.6406 203.196 11.7255 204.305 11.7255H211.981C212.287 11.7255 212.536 11.5042 212.536 11.1988V10.9776C212.536 10.6722 212.287 10.4236 211.981 10.4236H205.552C205.026 10.4236 204.61 10.0076 204.61 9.50842C204.61 8.98179 205.026 8.56672 205.552 8.56672H221.405C221.931 8.56672 222.347 8.98179 222.347 9.50842C222.347 10.0076 221.931 10.4236 221.405 10.4236H214.947C214.642 10.4236 214.393 10.6722 214.393 10.9776V11.1988Z" fill="#515C5C"/>
<path d="M250.012 18.5158C249.762 18.5158 249.569 18.7654 249.679 19.0151L250.677 21.5923C250.732 21.7588 250.982 21.7588 251.037 21.5923L251.813 19.0151C251.896 18.7654 251.702 18.5158 251.424 18.5158H250.012ZM254.28 18.5158C254.141 18.5158 254.057 18.5716 254.03 18.7096L252.117 25.1122C252.117 25.1396 252.09 25.1671 252.09 25.1954V25.2228L254.251 30.7933C254.473 31.2916 254.085 31.8466 253.531 31.8466C252.839 31.8466 252.229 31.4306 251.979 30.7933L251.037 28.3541C250.954 28.1602 250.704 28.1602 250.622 28.3267L249.457 30.8207C249.152 31.458 248.515 31.8466 247.822 31.8466C247.296 31.8466 246.935 31.2916 247.157 30.8207L249.596 25.6936C249.735 25.3892 249.735 25.029 249.623 24.7236L248.21 21.0657C248.182 20.9824 248.099 21.0099 248.072 21.0657C247.989 21.5923 247.545 21.9524 247.019 21.9524H246.88C246.326 21.9524 245.91 21.4533 246.021 20.9266L247.019 15.6341C247.129 15.0517 247.656 14.6083 248.266 14.6083C248.792 14.6083 249.208 15.1075 249.097 15.6341L249.014 16.0775C248.986 16.2714 249.125 16.4652 249.346 16.4652H253.974C254.557 16.4652 255 16.9085 255 17.49V17.7679C255 18.183 254.667 18.5158 254.28 18.5158ZM244.163 16.6863C244.025 17.2687 243.526 17.6563 242.916 17.6563C242.418 17.6563 242.058 17.1855 242.169 16.6863L242.362 15.9659C242.501 15.4119 243 14.9959 243.582 14.9959C244.109 14.9959 244.469 15.4951 244.358 15.9659L244.163 16.6863ZM240.312 24.1695C240.118 24.1695 239.979 24.3085 239.979 24.475V26.4973C239.979 26.6636 240.118 26.83 240.312 26.83C240.478 26.83 240.644 26.6636 240.644 26.4973V24.475C240.644 24.3085 240.478 24.1695 240.312 24.1695ZM240.201 28.6036C239.092 28.6036 238.178 27.6895 238.178 26.5805V24.3908C238.178 23.2828 239.092 22.3684 240.201 22.3684H240.395C241.503 22.3684 242.418 23.2828 242.418 24.3908V26.5805C242.418 27.6895 241.503 28.6036 240.395 28.6036H240.201ZM237.541 17.6563C236.958 17.6563 236.459 17.2687 236.321 16.6863L236.127 15.9659C236.016 15.4951 236.376 14.9959 236.902 14.9959C237.457 14.9959 237.984 15.4119 238.122 15.9659L238.316 16.6863C238.427 17.1855 238.067 17.6563 237.541 17.6563ZM240.284 13.6657C240.838 13.6657 241.254 14.1091 241.254 14.6631V18.7654C241.254 19.0424 241.503 19.292 241.808 19.292H242.778C243.886 19.292 244.802 20.2062 244.802 21.3153V31.2916C244.802 31.8466 244.358 32.29 243.832 32.29C243.277 32.29 242.833 31.8466 242.833 31.2916V21.786C242.833 21.5091 242.583 21.2595 242.307 21.2595H238.261C237.984 21.2595 237.734 21.5091 237.734 21.786V31.2916C237.734 31.8466 237.291 32.29 236.764 32.29C236.209 32.29 235.767 31.8466 235.767 31.2916V21.3153C235.767 20.2062 236.681 19.292 237.789 19.292H238.76C239.065 19.292 239.314 19.0424 239.314 18.7654V14.6631C239.314 14.1091 239.758 13.6657 240.284 13.6657ZM253.087 9.952C253.753 9.952 254.28 10.5069 254.28 11.1442C254.28 11.8088 253.753 12.3355 253.087 12.3355H235.878C235.572 12.3355 235.351 12.5851 235.351 12.8895V17.8785L234.242 30.4889C234.187 31.1535 233.632 31.6801 232.94 31.6801C232.274 31.6801 231.804 31.1535 231.859 30.4889L232.967 17.7396V11.9753C232.967 10.8672 233.854 9.952 234.991 9.952H242.778C242.972 9.952 243.139 9.814 243.139 9.62009V9.45379C243.139 8.81558 243.665 8.26147 244.33 8.26147C244.995 8.26147 245.522 8.81558 245.522 9.45379V9.62009C245.522 9.814 245.688 9.952 245.882 9.952H253.087Z" fill="#515C5C"/>
<path d="M255 40.616L122.698 40.616V40.0011L255 40.0011V40.616Z" fill="#A8263C"/>
<path d="M41.8507 8.28289L40.1544 9.97822C43.317 13.7125 45.2277 18.5391 45.2277 23.8043C45.2277 33.0739 39.3096 40.9858 31.0542 43.9644L31.6737 46.2754C40.9521 43.0256 47.6081 34.1926 47.6081 23.8043C47.6081 17.8735 45.4391 12.4498 41.8507 8.28289Z" fill="#A8263C"/>
<path d="M23.8043 45.2281C11.9918 45.2281 2.38055 35.6179 2.38055 23.8044C2.38055 22.5074 2.49715 21.2368 2.71831 20.0036L0.411201 19.3849C0.143031 20.817 0 22.2941 0 23.8044C0 36.9512 10.6576 47.6086 23.8043 47.6086C25.3147 47.6086 26.7918 47.4668 28.2238 47.1976L27.6061 44.8904C26.3718 45.1127 25.1013 45.2281 23.8043 45.2281Z" fill="#A8263C"/>
<path d="M23.8041 2.38044C29.0693 2.38044 33.8959 4.29109 37.6302 7.4537L39.3265 5.75743C35.1586 2.17005 29.7349 -0.000110626 23.8041 -0.000110626C13.4158 -0.000110626 4.58278 6.65597 1.33398 15.9354L3.64413 16.554C6.62266 8.29856 14.5346 2.38044 23.8041 2.38044Z" fill="#A8263C"/>
<path d="M41.6576 23.8044C41.6576 13.9445 33.6644 5.95145 23.8047 5.95145C22.2864 5.95145 20.8133 6.14231 19.4058 6.4996L20.227 8.75478C21.3762 8.48077 22.5733 8.332 23.8047 8.332C32.3362 8.332 39.277 15.2729 39.277 23.8044C39.277 24.1108 39.2663 24.4132 39.2486 24.7147L41.6038 25.1306C41.6361 24.6922 41.6576 24.2508 41.6576 23.8044Z" fill="#A8263C"/>
<path d="M5.95166 23.8044C5.95166 28.6516 7.88581 33.0445 11.022 36.262L12.5656 34.4218C9.94427 31.6488 8.33209 27.9125 8.33209 23.8044C8.33209 17.764 11.8129 12.5253 16.8725 9.97832L16.0503 7.71916C10.0744 10.6058 5.95166 16.7235 5.95166 23.8044Z" fill="#A8263C"/>
<path d="M40.988 28.6475L38.6289 28.2315C36.7192 34.6116 30.7983 39.2767 23.8045 39.2767C20.6645 39.2767 17.7407 38.334 15.2985 36.7199L13.7539 38.5602C16.6169 40.5139 20.0771 41.6572 23.8045 41.6572C31.9856 41.6572 38.8756 36.1532 40.988 28.6475Z" fill="#A8263C"/>
<path d="M29.2917 21.4854C28.9824 20.763 28.5566 20.1327 28.0173 19.5923C27.4779 19.054 26.8475 18.6292 26.1251 18.3189C25.4028 18.0096 24.6296 17.855 23.8043 17.855C22.9791 17.855 22.206 18.0096 21.4836 18.3189C20.7611 18.6292 20.1308 19.054 19.5915 19.5923C19.0511 20.1327 18.6272 20.763 18.3179 21.4854C18.0087 22.2078 17.853 22.9811 17.853 23.8062C17.853 24.6157 18.0087 25.3812 18.3179 26.1035C18.6272 26.8259 19.0511 27.4564 19.5915 27.9956C20.1308 28.5349 20.7611 28.9636 21.4836 29.2808C22.206 29.5989 22.9791 29.7566 23.8043 29.7566C24.0422 29.7566 24.5189 29.7017 25.2324 29.5902L24.6823 27.2743C24.0677 27.4298 23.3981 27.4456 22.6845 27.1901C21.2143 26.6644 20.2002 25.3136 20.2238 23.7524C20.2522 21.7986 21.8447 20.2247 23.8043 20.2247C25.7826 20.2247 27.3859 21.8281 27.3859 23.8062C27.3859 23.8924 27.382 23.9775 27.3751 24.0627V27.3771C27.3751 27.3868 27.3762 27.3977 27.3762 27.4074V27.9604C27.3762 29.7321 28.6623 31.2072 30.3498 31.5068C30.5554 31.544 30.7668 31.5664 30.9831 31.5664C32.326 31.5664 33.4987 30.8265 34.1192 29.734L34.1223 29.736C35.1284 27.9898 35.707 25.9656 35.707 23.8043C35.707 20.0651 33.9803 16.7302 31.2836 14.5484L30.0728 16.646C32.0648 18.3923 33.3264 20.9529 33.3264 23.8043C33.3264 25.294 32.9799 26.7035 32.3663 27.9604C32.2595 28.1796 32.1421 28.3921 32.0187 28.6016C31.8034 28.949 31.4197 29.1811 30.9831 29.1811C30.3097 29.1811 29.7624 28.6328 29.7624 27.9604V24.5834H29.7557V23.8062C29.7557 22.9811 29.6011 22.2078 29.2917 21.4854Z" fill="#A8263C"/>
<path d="M12.02 22.1472H14.4299C15.2169 17.6847 19.1196 14.2833 23.8042 14.2833C24.9231 14.2833 25.9968 14.479 26.9952 14.8343L28.2022 12.7455C26.8406 12.2033 25.3586 11.9027 23.8042 11.9027C17.7942 11.9027 12.8265 16.3594 12.02 22.1472Z" fill="#A8263C"/>
<path d="M23.8041 35.707C25.3124 35.707 26.7533 35.4231 28.0816 34.9112L26.8717 32.8164C25.9087 33.1454 24.8769 33.3266 23.8041 33.3266C19.2094 33.3266 15.3636 30.0543 14.4758 25.7181H12.0571C12.9733 31.3816 17.8821 35.707 23.8041 35.707Z" fill="#A8263C"/>
</g>
<defs>
<clipPath id="clip0_522_2408">
<rect width="255" height="47.6086" fill="white"/>
</clipPath>
</defs>
</svg>
