<?xml version="1.0" encoding="utf-8"?>
<!-- Generator: Adobe Illustrator 18.1.1, SVG Export Plug-In . SVG Version: 6.00 Build 0)  -->
<svg version="1.1" id="圖層_3" xmlns="http://www.w3.org/2000/svg" xmlns:xlink="http://www.w3.org/1999/xlink" x="0px" y="0px"
	 viewBox="0 0 952.4 177.8" enable-background="new 0 0 952.4 177.8" xml:space="preserve">
<g>
	<g>
		<g>
			<g>
				<g>
					<path fill="#9E243A" d="M294.3,155.4c0.3,0.5,0.4,1.1,0.4,1.7c0,2.1-1.7,3.7-3.7,3.7s-3.7-1.7-3.7-3.7c0-0.6,0.2-1.3,0.5-1.8
						l-1.3-0.7c-0.4,0.8-0.7,1.7-0.7,2.5c0,2.9,2.3,5.2,5.2,5.2c2.9,0,5.2-2.3,5.2-5.2c0-0.8-0.2-1.6-0.6-2.3L294.3,155.4z"/>
				</g>
				<g>
					<rect x="290.2" y="139.7" fill="#9E243A" width="1.5" height="17.7"/>
				</g>
				<g>
					<polygon fill="#FFFFFF" points="213.7,143.1 213.7,141.5 211.3,141.5 211.3,147.1 211.3,150 211.3,151.6 211.3,154.6 
						211.3,160.2 213.7,160.2 213.7,158.5 213,158.5 213,143.1 					"/>
				</g>
				<g>
					<polygon fill="#FFFFFF" points="204.4,150 204.4,141.5 201.9,141.5 201.9,143.1 202.7,143.1 202.7,158.5 201.9,158.5 
						201.9,160.2 204.4,160.2 204.4,151.6 209,151.6 209,150 					"/>
				</g>
				<g>
					<polygon fill="#FFFFFF" points="218.7,143.1 219.4,143.1 219.4,158.5 218.7,158.5 218.7,160.2 229.7,160.2 229.7,157.8 
						228,157.8 228,158.5 221.1,158.5 221.1,151.6 226.2,151.6 226.2,150 221.1,150 221.1,143.1 228,143.1 228,143.8 229.7,143.8 
						229.7,141.5 218.7,141.5 					"/>
				</g>
				<g>
					<polygon fill="#FFFFFF" points="244,158.5 237,158.5 237,141.5 234.6,141.5 234.6,143.1 235.4,143.1 235.4,158.5 234.6,158.5 
						234.6,160.2 245.6,160.2 245.6,157.8 244,157.8 					"/>
				</g>
				<g>
					<polygon fill="#FFFFFF" points="260,158.5 253,158.5 253,141.5 250.6,141.5 250.6,143.1 251.4,143.1 251.4,158.5 250.6,158.5 
						250.6,160.2 261.6,160.2 261.6,157.8 260,157.8 					"/>
				</g>
				<g>
					<path fill="#FFFFFF" d="M270.8,141.5c-2,0-3.7,1-5,2.9c-1.3,1.8-2,4.1-2,6.7c0,2.6,0.7,4.8,2,6.7c1.4,1.9,3.1,2.9,5,2.9
						c2,0,3.7-1,5-2.9c1.3-1.8,2-4.1,2-6.7c0-2.6-0.7-4.8-2-6.7C274.4,142.4,272.7,141.5,270.8,141.5z M274.5,156.6
						c-1.1,1.5-2.3,2.2-3.7,2.2c-1.5,0-2.7-0.7-3.7-2.2c-1.1-1.5-1.7-3.4-1.7-5.6c0-2.2,0.6-4.1,1.7-5.6l0,0
						c1.1-1.5,2.3-2.2,3.7-2.2c1.5,0,2.7,0.7,3.7,2.2c1.1,1.5,1.7,3.4,1.7,5.6C276.2,153.2,275.6,155.1,274.5,156.6z"/>
				</g>
				<g>
					<path fill="#FFFFFF" d="M313.1,151.6c-0.9-0.6-1.9-1.1-2.9-1.5c-1.1-0.5-2.1-1-3.1-1.6c-1.7-1.1-1.8-1.7-1.8-1.9
						c0-0.8,0.4-1.5,1.3-2.3c0.9-0.8,2-1.2,3.2-1.2c0.8,0,1.5,0.2,2.2,0.5c0.6,0.3,1.1,0.7,1.6,1.2l0,1.2h1.7l0-1.8l-0.2-0.2
						c-0.6-0.8-1.4-1.4-2.3-1.9c-0.9-0.5-1.9-0.7-2.9-0.7c-1.6,0-3.1,0.5-4.3,1.6c-1.2,1-1.8,2.2-1.8,3.5c0,1.1,1,2.3,2.9,3.5
						c0.9,0.6,1.9,1.1,2.9,1.5c1.1,0.5,2.1,1,3,1.6c1.7,1.1,1.8,1.7,1.8,1.9c0,0.8-0.4,1.5-1.3,2.3c-0.9,0.8-2,1.2-3.2,1.2
						c-0.8,0-1.6-0.2-2.3-0.6c-0.6-0.3-1-0.7-1.4-1.1v-1.3h-1.7l0,1.6l0.1,0.3l0.1,0.2c0.5,0.7,1.2,1.3,2.1,1.8l0,0
						c1,0.5,2.1,0.8,3.2,0.8c1.6,0,3.1-0.5,4.4-1.6c1.2-1,1.8-2.2,1.8-3.5C316,154,315,152.8,313.1,151.6z"/>
				</g>
				<g>
					<path fill="#FFFFFF" d="M327.9,141.5c-2,0-3.7,1-5,2.9c-1.3,1.8-2,4.1-2,6.7c0,2.6,0.7,4.8,2,6.7c1.4,1.9,3.1,2.9,5,2.9
						c2,0,3.7-1,5-2.9c1.3-1.8,2-4.1,2-6.7c0-2.6-0.7-4.8-2-6.7C331.6,142.4,329.9,141.5,327.9,141.5z M331.7,156.6
						c-1.1,1.5-2.3,2.2-3.7,2.2c-1.5,0-2.7-0.7-3.7-2.2c-1.1-1.5-1.7-3.4-1.7-5.6c0-2.2,0.6-4.1,1.7-5.6l0,0
						c1.1-1.5,2.3-2.2,3.7-2.2c1.5,0,2.7,0.7,3.7,2.2c1.1,1.5,1.7,3.4,1.7,5.6C333.3,153.2,332.8,155.1,331.7,156.6z"/>
				</g>
				<g>
					<polygon fill="#FFFFFF" points="349.3,158.5 342.3,158.5 342.3,141.5 339.9,141.5 339.9,143.1 340.6,143.1 340.6,158.5 
						339.9,158.5 339.9,160.2 350.9,160.2 350.9,157.8 349.3,157.8 					"/>
				</g>
				<g>
					<polygon fill="#FFFFFF" points="364.1,141.5 361.8,141.5 361.8,143.1 362.3,143.1 356.8,158.5 355.9,158.5 355.9,160.2 
						358,160.2 359.4,156.1 364.9,156.1 364.2,154.4 360,154.4 363.5,144.7 367,154.4 367,154.4 367.6,156.1 367.6,156.1 369,160.2 
						371.1,160.2 371.1,158.5 370.2,158.5 					"/>
				</g>
				<g>
					<path fill="#FFFFFF" d="M387.9,146.5c0-1.4-0.5-2.6-1.5-3.6c-1-1-2.2-1.5-3.6-1.5H376v1.6h0.8v15.4H376v1.6h2.4v-8.5h3l4.5,8.5
						h2v-1.6h-1l-3.6-6.9c1.2-0.1,2.3-0.6,3.1-1.5C387.4,149.1,387.9,147.9,387.9,146.5z M385.2,149c-0.7,0.7-1.5,1-2.4,1h-4.3v-6.9
						h4.3c1,0,1.8,0.3,2.4,1c0.7,0.7,1,1.5,1,2.4S385.9,148.3,385.2,149z"/>
				</g>
				<g>
					<polygon fill="#FFFFFF" points="401,156.7 394.9,141.5 392.7,141.5 392.7,143.1 393.5,143.1 393.5,158.5 392.7,158.5 
						392.7,160.2 395.1,160.2 395.1,146.4 400.6,160.2 401.4,160.2 406.8,146.4 406.8,160.2 409.2,160.2 409.2,158.5 408.4,158.5 
						408.4,143.1 409.2,143.1 409.2,141.5 407,141.5 					"/>
				</g>
				<g>
					<polygon fill="#FFFFFF" points="422.4,141.5 420.1,141.5 420.1,143.1 420.6,143.1 415.1,158.5 414.2,158.5 414.2,160.2 
						416.3,160.2 417.7,156.1 423.2,156.1 422.5,154.4 418.3,154.4 421.8,144.7 425.3,154.4 425.2,154.4 425.8,156.1 425.9,156.1 
						427.3,160.2 429.4,160.2 429.4,158.5 428.5,158.5 					"/>
				</g>
				<g>
					<polygon fill="#FFFFFF" points="446.6,143.1 446.6,141.5 444.2,141.5 444.2,156.1 436.5,141.5 434.3,141.5 434.3,143.1 
						435.1,143.1 435.1,158.5 434.3,158.5 434.3,160.2 436.7,160.2 436.7,145.5 444.4,160.2 446.6,160.2 446.6,158.5 445.8,158.5 
						445.8,143.1 					"/>
				</g>
			</g>
		</g>
		<g>
			<path fill="#FFFFFF" d="M274.4,54.8c2.5,0,4.6,2,4.6,4.6c0,2.5-2.1,4.5-4.6,4.5h-26.9c-0.8,0-1.3,0.9-0.9,1.8l29.1,49.1
				c1.1,2-0.3,4.5-2.6,4.5c-3.2,0-6.2-1.7-7.9-4.5l-25.9-43.9c-0.4-0.7-1.6-0.7-2,0l-22.9,43.9c-1.4,2.8-4.2,4.5-7.3,4.5
				c-2.3,0-3.7-2.4-2.7-4.5L230,65.5c0.4-0.7-0.1-1.8-1-1.8h-27.2c-2.5,0-4.6-2-4.6-4.5c0-2.6,2.1-4.6,4.6-4.6h29.8c1.1,0,2-0.9,2-2
				V37.7c0-2.5,2.1-4.5,4.6-4.5s4.6,2,4.6,4.5v15.1c0,1,0.8,2,2,2H274.4z M234.6,100c-1.1-2.1,0.3-4.5,2.7-4.5c3.1,0,6,1.7,7.5,4.5
				l5.2,9.5c1.1,2-0.4,4.5-2.7,4.5c-3.2,0-6.1-1.8-7.6-4.5L234.6,100z"/>
		</g>
		<g>
			<path fill="#FFFFFF" d="M305.2,41.1c0-4.1,3.3-7.3,7.5-7.3h14.4c3.9,0,6.6,3.4,5.9,7.2l-3.4,15.9c-0.3,1.2-0.3,2.6,0.1,3.8
				l2.4,8.4c1.3,4.8,2,9.7,2,14.7v7.2c0,3.7-2.8,6.6-6.5,6.6h-2.4c-2.5,0-4.2-1.9-4.2-4.2V93c0-2.1,1.6-3.6,3.7-3.6
				c0.5,0,1.1-0.5,1.1-1.1v-8.6c0-1.3-0.2-2.7-0.5-3.9l-2.7-9.3c-1.3-4.8-1.4-9.8-0.5-14.6l1.7-7.7c0.2-0.9-0.6-2.1-1.8-2.1h-6.1
				c-1.1,0-2.2,1-2.2,2.2v72.6c0,2.4-1.8,4.1-4.1,4.1c-2.4,0-4.2-1.8-4.2-4.1V41.1z M394.6,74c0,2.2-1.7,3.8-3.8,3.8h-35.3
				c-1.1,0-2.4,0.7-2.8,2l-0.6,2c-0.3,0.9,0.3,2.1,1.4,2.1h32.4c4.1,0,7.2,3.3,7,7.3l-1.3,26.2c-0.1,2.1-1.7,3.5-3.7,3.5
				c-1.9,0-3.4-1.6-3.3-3.5l1.2-24.3c0-1.1-0.9-2.2-2.1-2.2h-2.3c-1.1,0-2.4,0.8-2.7,2.1l-5,18.4c-0.6,2-2.4,3.4-4.6,3.4
				c-1.9,0-3.1-1.6-2.6-3.4l5-18.4c0.2-0.9-0.5-2.1-1.7-2.1h-4.2c-1.1,0-2.3,0.8-2.6,2.1l-5.1,18.4c-0.5,2-2.4,3.4-4.6,3.4
				c-1.8,0-3-1.6-2.6-3.4l5-18.4c0.3-0.9-0.4-2.1-1.6-2.1h-3.2c-1.2,0-2.4,0.8-2.8,2.1l-2.3,6.9c-0.7,2.1-2.7,3.6-5,3.6
				c-1.9,0-3.1-1.8-2.5-3.6l6.7-20.3c0.3-0.8-0.3-1.8-1.2-1.8h-2.7c-2.2,0-3.8-1.7-3.8-3.8c0-2.1,1.7-3.7,3.8-3.7h49.4
				C392.9,70.3,394.6,72,394.6,74z M380.6,32.6c4.1,0,7.3,3.2,7.3,7.5v18.4c0,4.1-3.2,7.3-7.3,7.3h-28.8c-4.1,0-7.3-3.2-7.3-7.3
				V40.1c0-4.2,3.2-7.5,7.3-7.5H380.6z M380.7,42c0-1-0.9-2.1-2.1-2.1h-24.8c-1.1,0-2.1,1-2.1,2.1v1.4c0,1,0.9,2.1,2.1,2.1h24.8
				c1.1,0,2.1-1,2.1-2.1V42z M351.7,56.4c0,1.1,0.9,2.1,2.1,2.1h24.8c1.1,0,2.1-0.9,2.1-2.1V55c0-1-0.9-2.1-2.1-2.1h-24.8
				c-1.1,0-2.1,1-2.1,2.1V56.4z"/>
		</g>
		<g>
			<path fill="#FFFFFF" d="M465.4,70.3c0,1.2,0.4,2.6,1.2,3.6l30.5,39.6c1.6,2,0.2,4.8-2.3,4.8c-3.8,0-7.5-1.8-9.7-4.8l-23.2-30.1
				c-0.6-0.7-1.8-0.7-2.4,0.1l-21.5,30c-2.1,3-5.6,4.8-9.2,4.8c-2.5,0-3.9-2.8-2.5-4.8L454.7,74c0.7-1,1.1-2.3,1.1-3.6V38
				c0-2.6,2.2-4.8,4.8-4.8s4.8,2.2,4.8,4.8V70.3z"/>
		</g>
		<g>
			<path fill="#FFFFFF" d="M574.6,45.7c-0.8-0.7-2.2-0.7-3,0.1L547.8,68c-3.1,2.9-7.1,4.6-11.4,4.6c-2.2,0-3.4-3.1-1.8-4.6l32.9-31
				c3-2.9,7.9-2.9,11-0.1L612.6,68c1.8,1.7,0.6,4.6-1.8,4.6c-4.3,0-8.5-1.7-11.7-4.6L574.6,45.7z M577.2,107.9c0,1.1,0.9,2.1,2,2.1
				h24.5c2.4,0,4.2,1.9,4.2,4.1c0,2.4-1.9,4.2-4.2,4.2h-61.5c-2.3,0-4.1-1.9-4.1-4.2c0-2.3,1.9-4.1,4.1-4.1h24.6c1.1,0,2-0.9,2-2.1
				V97.7c0-1.1-0.8-2.1-2-2.1h-18.1c-2.4,0-4.2-1.9-4.2-4.2c0-2.3,1.9-4.1,4.2-4.1h18.1c1.1,0,2-0.9,2-2.1v-8.1c0-1-0.8-2-2-2h-13.4
				c-2.3,0-4.1-1.9-4.1-4.1c0-2.4,1.9-4.2,4.1-4.2h39.2c2.4,0,4.2,1.9,4.2,4.2c0,2.3-1.9,4.1-4.2,4.1h-13.6c-1,0-2,0.9-2,2v8.1
				c0,1.1,0.9,2.1,2,2.1h18.1c2.4,0,4.2,1.9,4.2,4.1c0,2.4-1.9,4.2-4.2,4.2h-18.1c-1,0-2,0.9-2,2.1V107.9z"/>
		</g>
		<g>
			<path fill="#FFFFFF" d="M717.7,73.4c2.5,0,4.3,1.9,4.3,4.3s-1.9,4.3-4.3,4.3h-19.4c-0.9,0-1.6,1.1-1.1,2l16.9,31.8
				c1,2.1-0.4,4.5-2.6,4.5c-3.2,0-6-1.8-7.5-4.5l-16.9-31.8c-0.6-1.2-1.9-2-3.1-2h-24.1c-1.1,0-2.3,1-2.3,2.2v21.5
				c0,1.1,1.1,2,2.2,1.9l10.9-1.6c2.4-0.3,4.3,1.3,4.3,3.7c0,2.6-1.9,4.8-4.3,5.1l-14.4,2.1c-3.9,0.6-7.3-2.3-7.3-6.3v-70
				c0-4.1,3.3-7.5,7.5-7.5h53c4.2,0,7.5,3.3,7.5,7.5v12.4c0,4.1-3.2,7.3-7.5,7.3h-16.5c-1,0-2,1-1.9,2.1l1.1,8.8
				c0.2,1.2,1.2,2.1,2.4,2.1H717.7z M659.9,42.1c-1.1,0-2.3,0.9-2.3,2.1v5.4c0,1.1,1.1,2.2,2.3,2.2H706c1.1,0,2.1-1,2.1-2.2v-5.4
				c0-1.1-0.9-2.1-2.1-2.1H659.9z M659.9,60.5c-1.1,0-2.3,1-2.3,2.1v8.8c0,1.1,1.1,2.1,2.3,2.1h21.6c1.1,0,2-1,1.9-2.1l-1.1-8.8
				c-0.1-1.2-1.2-2.1-2.4-2.1H659.9z"/>
		</g>
		<g>
			<path fill="#FFFFFF" d="M800.8,41.8c0,1.1,0.9,2,2.1,2h28.8c4.1,0,7.6,3.4,7.6,7.6v6.8c0,2-1.6,3.6-3.5,3.6c-2,0-3.6-1.7-3.6-3.6
				V53c0-1-0.8-2-2-2h-27.2c-1.1,0-2.1,0.9-2.1,2v13.1c0,2-1.6,3.5-3.5,3.5c-1.9,0-3.4-1.6-3.4-3.5V53c0-1-0.9-2-2.1-2h-27.1
				c-1,0-2,0.9-2,2v5.2c0,2-1.7,3.6-3.6,3.6c-2,0-3.5-1.7-3.5-3.6v-6.8c0-4.1,3.4-7.6,7.6-7.6h28.7c1.1,0,2.1-0.8,2.1-2V41
				c0-1.1-0.9-2.1-2.1-2.1h-24c-2,0-3.5-1.6-3.5-3.4c0-2,1.6-3.5,3.5-3.5H827c2,0,3.5,1.6,3.5,3.5c0,1.9-1.6,3.4-3.5,3.4h-24.1
				c-1.1,0-2.1,0.9-2.1,2.1V41.8z M803.2,108c-1.1,0-2.2,0.9-2.2,2.1v0.4c0,1,1,2.1,2.2,2.1h28.8c2.1,0,3.7,1.7,3.7,3.8
				c0,2.1-1.7,3.7-3.7,3.7h-31c-4.1,0-7.5-3.2-7.5-7.3V110c0-1.1-0.9-2.1-2.1-2.1h-18.9c-4.1,0-7.3-3.3-7.3-7.5V81.2
				c0-4.1,3.2-7.5,7.3-7.5h49.7c4.1,0,7.3,3.3,7.3,7.5v19.4c0,4.1-3.2,7.5-7.3,7.5H803.2z M783.9,54.1c1.7,0,2.9,1.2,2.9,2.8
				c0,1.7-1.2,2.9-2.9,2.9h-11.4c-1.6,0-2.9-1.2-2.9-2.9c0-1.6,1.3-2.8,2.9-2.8H783.9z M772.7,68.4c-1.8,0-3.1-1.3-3.1-3
				c0-1.8,1.3-3.1,3.1-3.1h11.1c1.7,0,3,1.3,3,3.1c0,1.7-1.3,3-3,3H772.7z M793.5,82.5c0-1.1-0.9-2.1-2.1-2.1h-17.6
				c-1,0-2.1,0.9-2.1,2.1v2.6c0,1.1,1,2.2,2.1,2.2h17.6c1.1,0,2.1-1,2.1-2.2V82.5z M771.9,99.2c0,1,0.9,2,2,2h17.6c1.1,0,2-0.9,2-2
				v-2.7c0-1.1-0.8-2-2-2h-17.6c-1,0-2,0.8-2,2V99.2z M820.7,87.3c1.1,0,2.2-1,2.2-2.2v-2.6c0-1.1-1-2.1-2.2-2.1h-17.6
				c-1.1,0-2.2,0.9-2.2,2.1v2.6c0,1.1,1,2.2,2.2,2.2H820.7z M801.1,99.2c0,1,0.9,2,2.1,2h17.6c1.1,0,2.1-0.9,2.1-2v-2.7
				c0-1.1-0.9-2-2.1-2h-17.6c-1.1,0-2.1,0.8-2.1,2V99.2z M822.1,54.1c1.6,0,2.9,1.2,2.9,2.8c0,1.7-1.3,2.9-2.9,2.9h-11.3
				c-1.6,0-2.9-1.2-2.9-2.9c0-1.6,1.3-2.8,2.9-2.8H822.1z M810.9,68.4c-1.7,0-3-1.3-3-3c0-1.8,1.3-3.1,3-3.1h11
				c1.7,0,3.1,1.3,3.1,3.1c0,1.7-1.4,3-3.1,3H810.9z"/>
		</g>
		<g>
			<path fill="#FFFFFF" d="M945.3,37.2c2.5,0,4.5,2.1,4.5,4.5c0,2.5-2,4.5-4.5,4.5H881c-1.1,0-2,0.9-2,2.1v18.6l-4.1,47.1
				c-0.2,2.5-2.3,4.5-4.9,4.5c-2.5,0-4.2-2-4-4.5l4.1-47.6V44.7c0-4.1,3.3-7.6,7.6-7.6h29.1c0.7,0,1.3-0.5,1.3-1.2v-0.6
				c0-2.4,2-4.5,4.5-4.5c2.5,0,4.5,2.1,4.5,4.5v0.6c0,0.7,0.6,1.2,1.3,1.2H945.3z M897.5,51c2.1,0,3.6,1.7,3.6,3.7v15.3
				c0,1,0.9,2,2.1,2h3.6c4.1,0,7.6,3.4,7.6,7.6v37.3c0,2.1-1.7,3.7-3.6,3.7c-2.1,0-3.7-1.7-3.7-3.7V81.4c0-1-0.9-2-2-2h-15.1
				c-1,0-2,0.9-2,2v35.5c0,2.1-1.7,3.7-3.6,3.7c-2.1,0-3.7-1.7-3.7-3.7V79.6c0-4.1,3.4-7.6,7.6-7.6h3.6c1.1,0,2.1-0.9,2.1-2V54.8
				C893.9,52.7,895.5,51,897.5,51z M887.2,65.9c-2.2,0-4-1.4-4.6-3.6l-0.7-2.7c-0.4-1.8,0.9-3.6,2.9-3.6c2.1,0,4,1.6,4.6,3.6
				l0.7,2.7C890.5,64.2,889.2,65.9,887.2,65.9z M897.2,106.8c-4.1,0-7.6-3.4-7.6-7.6v-8.2c0-4.1,3.4-7.6,7.6-7.6h0.7
				c4.1,0,7.6,3.4,7.6,7.6v8.2c0,4.1-3.4,7.6-7.6,7.6H897.2z M897.6,90.3c-0.7,0-1.2,0.5-1.2,1.1V99c0,0.6,0.5,1.2,1.2,1.2
				c0.6,0,1.2-0.6,1.2-1.2v-7.6C898.8,90.8,898.2,90.3,897.6,90.3z M912,62.3c-0.5,2.2-2.4,3.6-4.7,3.6c-1.9,0-3.2-1.8-2.8-3.6
				l0.7-2.7c0.5-2.1,2.4-3.6,4.6-3.6c2,0,3.3,1.9,2.9,3.6L912,62.3z M949.7,69.2c-0.5,0-0.8,0.2-0.9,0.7l-7.1,23.9
				c0,0.1-0.1,0.2-0.1,0.3v0.1l8.1,20.8c0.8,1.9-0.6,3.9-2.7,3.9c-2.6,0-4.9-1.6-5.8-3.9l-3.5-9.1c-0.3-0.7-1.2-0.7-1.6-0.1
				l-4.3,9.3c-1.1,2.4-3.5,3.8-6.1,3.8c-2,0-3.3-2.1-2.5-3.8l9.1-19.1c0.5-1.1,0.5-2.5,0.1-3.6l-5.3-13.7c-0.1-0.3-0.4-0.2-0.5,0
				c-0.3,2-2,3.3-3.9,3.3h-0.5c-2.1,0-3.6-1.9-3.2-3.8l3.7-19.8c0.4-2.2,2.4-3.8,4.7-3.8c2,0,3.5,1.9,3.1,3.8l-0.3,1.7
				c-0.1,0.7,0.4,1.4,1.2,1.4h17.3c2.2,0,3.8,1.7,3.8,3.8v1C952.4,67.9,951.2,69.2,949.7,69.2z M933.8,69.2c-0.9,0-1.7,0.9-1.2,1.9
				l3.7,9.6c0.2,0.6,1.1,0.6,1.3,0l2.9-9.6c0.3-0.9-0.4-1.9-1.4-1.9H933.8z"/>
		</g>
		<g>
			<rect x="458.3" y="149.4" fill="#9E243A" width="494.2" height="2.3"/>
		</g>
	</g>
	<g>
		<g>
			<g>
				<path fill="#9E243A" d="M156.3,30.9l-6.3,6.3c11.8,13.9,18.9,32,18.9,51.6c0,34.6-22.1,64.2-52.9,75.3l2.3,8.6
					c34.7-12.1,59.5-45.1,59.5-83.9C177.8,66.8,169.7,46.5,156.3,30.9z"/>
				<path fill="#9E243A" d="M88.9,168.9c-44.1,0-80-35.9-80-80c0-4.8,0.4-9.6,1.3-14.2l-8.6-2.3C0.5,77.8,0,83.3,0,88.9
					c0,49.1,39.8,88.9,88.9,88.9c5.6,0,11.2-0.5,16.5-1.5l-2.3-8.6C98.5,168.5,93.8,168.9,88.9,168.9z"/>
				<path fill="#9E243A" d="M88.9,8.9c19.7,0,37.7,7.1,51.6,18.9l6.3-6.3C131.3,8.1,111.1,0,88.9,0C50.1,0,17.1,24.9,5,59.5l8.6,2.3
					C24.7,31,54.3,8.9,88.9,8.9z"/>
				<path fill="#9E243A" d="M155.6,88.9c0-36.8-29.9-66.7-66.7-66.7c-5.7,0-11.2,0.7-16.4,2l3.1,8.4c4.3-1,8.8-1.6,13.4-1.6
					c31.9,0,57.8,25.9,57.8,57.8c0,1.1,0,2.3-0.1,3.4l8.8,1.6C155.5,92.2,155.6,90.6,155.6,88.9z"/>
				<path fill="#9E243A" d="M22.2,88.9c0,18.1,7.2,34.5,18.9,46.5l5.8-6.9c-9.8-10.4-15.8-24.3-15.8-39.7c0-22.6,13-42.1,31.9-51.6
					l-3.1-8.4C37.6,39.6,22.2,62.5,22.2,88.9z"/>
				<path fill="#9E243A" d="M153.1,107l-8.8-1.6c-7.1,23.8-29.2,41.3-55.4,41.3c-11.7,0-22.6-3.5-31.8-9.6l-5.8,6.9
					c10.7,7.3,23.6,11.6,37.5,11.6C119.5,155.6,145.2,135,153.1,107z"/>
				<path fill="#9E243A" d="M109.4,80.2c-1.2-2.7-2.7-5.1-4.8-7.1c-2-2-4.4-3.6-7.1-4.8c-2.7-1.2-5.6-1.7-8.7-1.7
					c-3.1,0-6,0.6-8.7,1.7c-2.7,1.2-5.1,2.7-7.1,4.8c-2,2-3.6,4.4-4.8,7.1c-1.2,2.7-1.7,5.6-1.7,8.7c0,3,0.6,5.9,1.7,8.6
					c1.2,2.7,2.7,5.1,4.8,7.1c2,2,4.4,3.6,7.1,4.8c2.7,1.2,5.6,1.8,8.7,1.8c0.9,0,2.7-0.2,5.3-0.6l-2.1-8.6
					c-2.3,0.6-4.8,0.6-7.5-0.3c-5.5-2-9.3-7-9.2-12.8c0.1-7.3,6.1-13.2,13.4-13.2c7.4,0,13.4,6,13.4,13.4c0,0.3,0,0.6,0,1v12.4
					c0,0,0,0.1,0,0.1v2.1c0,6.6,4.8,12.1,11.1,13.2c0.8,0.1,1.6,0.2,2.4,0.2c5,0,9.4-2.8,11.7-6.8l0,0c3.8-6.5,5.9-14.1,5.9-22.2
					c0-14-6.4-26.4-16.5-34.6l-4.5,7.8c7.4,6.5,12.2,16.1,12.2,26.7c0,5.6-1.3,10.8-3.6,15.5c-0.4,0.8-0.8,1.6-1.3,2.4
					c-0.8,1.3-2.2,2.2-3.9,2.2c-2.5,0-4.6-2-4.6-4.6V91.8h0v-2.9C111.1,85.8,110.6,82.9,109.4,80.2z"/>
				<path fill="#9E243A" d="M44.9,82.7h9c2.9-16.7,17.5-29.4,35-29.4c4.2,0,8.2,0.7,11.9,2.1l4.5-7.8c-5.1-2-10.6-3.1-16.4-3.1
					C66.5,44.5,47.9,61.1,44.9,82.7z"/>
				<path fill="#9E243A" d="M88.9,133.4c5.6,0,11-1.1,16-3l-4.5-7.8c-3.6,1.2-7.4,1.9-11.5,1.9c-17.2,0-31.5-12.2-34.8-28.4h-9
					C48.5,117.2,66.8,133.4,88.9,133.4z"/>
			</g>
		</g>
	</g>
</g>
</svg>
