<svg xmlns="http://www.w3.org/2000/svg" viewBox="0 0 561.05 612"><defs><style>.cls-1{fill:#9f253a;}</style></defs><title>spicon0</title><g id="圖層_3" data-name="圖層 3"><path class="cls-1" d="M222.09,249.63v.45c0,27.3-18.53,43.89-46,47.29v11a14.73,14.73,0,1,1-29.45,0V296.17a99.28,99.28,0,0,1-39.56-16.66,15.83,15.83,0,0,1-6.44-12.82A15.67,15.67,0,0,1,116.54,251a16.1,16.1,0,0,1,9.7,3.09C138,262.68,150.82,268,165.89,268c13.93,0,22.34-5.52,22.34-14.61V253c0-8.63-5.33-13-31.22-19.69-31.18-7.95-51.33-16.59-51.33-47.36v-.45c0-23.94,16.49-40.86,40.92-45.36V128.55a14.72,14.72,0,1,1,29.44,0v11.63A86.81,86.81,0,0,1,209,152.51a15.46,15.46,0,0,1,7.58,13.5,15.72,15.72,0,0,1-15.95,15.72,16.09,16.09,0,0,1-8.6-2.44c-11.3-6.64-21.94-10.42-32.57-10.42-13.06,0-19.92,6-19.92,13.51v.44c0,10.16,6.64,13.5,33.41,20.35C204.35,211.35,222.09,222.64,222.09,249.63Z"/><path class="cls-1" d="M284.11,249.36a32.39,32.39,0,0,1,29.95,19.94l25.68,61.35,5.4,12.91,12.91-5.4,61.46-25.7a32.44,32.44,0,0,1,42.43,17.43L495.87,411a32.06,32.06,0,0,1,.67,22.69l-5.13,15.41,16,2.8a32.25,32.25,0,0,1,24.3,19.33l12.81,30.6a32.5,32.5,0,0,1-17.4,42.46l-122.45,51.2a32.38,32.38,0,0,1-42.45-17.42l-12.8-30.61a32.13,32.13,0,0,1,0-25l4.66-11.17L343.72,505l-107.1-64.36a25.81,25.81,0,1,1,26.58-44.26l8.42,5.06,36.61,22-16.49-39.39-37.56-89.72a32.49,32.49,0,0,1,29.93-45m0-14a46.48,46.48,0,0,0-42.85,64.38l37.57,89.73-8.42-5.05a39.82,39.82,0,0,0-41,68.26L336.51,517a46.18,46.18,0,0,0,0,35.81l12.79,30.6a46.38,46.38,0,0,0,60.78,24.93l122.44-51.19a46.46,46.46,0,0,0,24.92-60.78L544.63,465.8a46.26,46.26,0,0,0-34.81-27.71,46,46,0,0,0-1-32.5l-33.93-81.1a46.43,46.43,0,0,0-60.75-24.95l-61.46,25.71L327,263.9a46.46,46.46,0,0,0-42.87-28.54Z"/><path class="cls-1" d="M346.53,514l153-70s27-7,41,30,20,47,5,60-154,66.6-154,66.6l-32-13.6-19-47Z"/><path class="cls-1" d="M376.55,0H81.2A81.3,81.3,0,0,0,0,81.22V519.4a81.3,81.3,0,0,0,81.2,81.2H339.29a60.13,60.13,0,0,1-6.76-11.8l-12.79-30.6a59.74,59.74,0,0,1-3.58-34.82l-47.41-28.5H81.2a12,12,0,0,1-12-12V81.22a12,12,0,0,1,12-12H376.55a12,12,0,0,1,12,12V284.78l20.23-8.46a60.28,60.28,0,0,1,46.14-.16c1,.42,1.89,1,2.87,1.51V81.22A81.31,81.31,0,0,0,376.55,0ZM228.88,522.68a22,22,0,1,1-22,22A22,22,0,0,1,228.88,522.68Z"/></g></svg>