<svg width="32" height="32" viewBox="0 0 32 32" fill="none" xmlns="http://www.w3.org/2000/svg">
<circle cx="15.4" cy="16.4" r="13.9" stroke="#2AA19C"/>
<path d="M12.4001 10.7L14.2001 10.7L14.2001 9.8L16.0001 9.8L16.0001 10.7L17.8001 10.7L17.8001 24.2L12.4001 24.2L12.4001 10.7ZM10.6001 10.25L10.6001 24.65C10.6001 25.3956 11.2045 26 11.9501 26L18.2501 26C18.9957 26 19.6001 25.3956 19.6001 24.65L19.6001 10.25C19.6001 9.50441 18.9957 8.9 18.2501 8.9L17.8001 8.9L17.8001 8.675C17.8001 8.3022 17.4979 8 17.1251 8L13.0751 8C12.7023 8 12.4001 8.3022 12.4001 8.675L12.4001 8.9L11.9501 8.9C11.2045 8.9 10.6001 9.50441 10.6001 10.25ZM13.3001 17L13.3001 23.3L16.9001 23.3L16.9001 17L13.3001 17Z" fill="#2AA19C"/>
<path d="M30.3171 16.605C30.1887 16.3413 29.822 16.3308 29.6685 16.5797C28.958 17.7165 27.686 18.4251 26.2329 18.4251H24.3994C21.97 18.4251 19.999 20.2389 19.999 22.4746C19.999 22.6222 20.0173 22.7635 20.0334 22.907C21.4956 21.9431 23.6064 21.1248 26.5996 21.1248C26.8013 21.1248 26.9663 21.2766 26.9663 21.4622C26.9663 21.6478 26.8013 21.7997 26.5996 21.7997C20.8378 21.7997 18.3947 25.0498 17.8538 26.271C17.7025 26.6147 17.8813 27.007 18.2549 27.1483C18.6307 27.2918 19.057 27.1251 19.2129 26.7835C19.2473 26.7075 19.6919 25.7732 20.8608 24.8726C21.6033 25.7985 23.0151 26.6822 24.8693 26.5008C28.4675 26.2604 31 23.2908 31 19.6547C31 18.596 30.7525 17.4992 30.3171 16.605Z" fill="#FD9D24"/>
</svg>
