<svg width="50" height="51" viewBox="0 0 50 51" fill="none" xmlns="http://www.w3.org/2000/svg">
<path d="M43.9531 8.71209L42.1716 10.4953C45.4931 14.4231 47.4997 19.4999 47.4997 25.038C47.4997 34.788 41.2843 43.11 32.6143 46.2431L33.2649 48.6738C43.0093 45.2556 49.9997 35.9648 49.9997 25.038C49.9997 18.7998 47.7218 13.0949 43.9531 8.71209Z" fill="#2AA29C"/>
<path d="M25.0001 47.5725C12.5941 47.5725 2.50013 37.4642 2.50013 25.0383C2.50013 23.6741 2.62259 22.3377 2.85486 21.0405L0.431857 20.3898C0.150216 21.8961 0 23.4497 0 25.0383C0 38.8665 11.1929 50.0764 25.0001 50.0764C26.5863 50.0764 28.1376 49.9272 29.6416 49.644L28.9928 47.2173C27.6965 47.4511 26.3623 47.5725 25.0001 47.5725Z" fill="#2AA29C"/>
<path d="M25.0003 2.50395C30.5299 2.50395 35.599 4.51363 39.5208 7.84017L41.3024 6.05597C36.9251 2.28265 31.2289 7.62939e-06 25.0003 7.62939e-06C14.0901 7.62939e-06 4.81337 7.00109 1.40137 16.7615L3.82756 17.4121C6.95571 8.72882 15.265 2.50395 25.0003 2.50395Z" fill="#2AA29C"/>
<path d="M43.75 25.0381C43.75 14.6672 35.3553 6.25984 25.0002 6.25984C23.4057 6.25984 21.8586 6.4606 20.3804 6.8364L21.2429 9.20848C22.4498 8.92026 23.707 8.76378 25.0002 8.76378C33.9603 8.76378 41.2498 16.0644 41.2498 25.0381C41.2498 25.3604 41.2385 25.6785 41.22 25.9957L43.6935 26.4331C43.7274 25.9719 43.75 25.5077 43.75 25.0381Z" fill="#2AA29C"/>
<circle cx="24.9324" cy="24.9324" r="18.8514" fill="#2AA29C"/>
<path d="M31.7646 21.2457H26.9674L28.7383 15.8499C28.9046 15.218 28.4265 14.5945 27.7739 14.5945H21.7878C21.289 14.5945 20.865 14.9645 20.7985 15.4591L19.4682 25.4359C19.3892 26.0345 19.8548 26.5666 20.4576 26.5666H25.3919L23.4756 34.652C23.3259 35.2838 23.8081 35.8783 24.4441 35.8783C24.7933 35.8783 25.1259 35.6954 25.3088 35.3794L32.6251 22.7422C33.0117 22.0812 32.5336 21.2457 31.7646 21.2457Z" fill="white"/>
</svg>
