<svg width="32" height="32" viewBox="0 0 32 32" fill="none" xmlns="http://www.w3.org/2000/svg">
<circle cx="16.4" cy="16.4" r="13.9" stroke="#2AA19C"/>
<path d="M19.6558 22.1253L18.2504 22.1268V21.1875H14.5004V22.1312L13.0947 22.1326C12.8363 22.1329 12.6269 22.3424 12.6266 22.6011L12.6251 23.5307C12.6248 23.7899 12.8352 24.0003 13.0944 24L19.6558 23.9924C19.9142 23.9921 20.1236 23.7826 20.1239 23.5242L20.1251 22.5946C20.1254 22.3354 19.915 22.125 19.6558 22.1253ZM24.1446 9.7834C24.0679 9.33135 23.6697 9 23.203 9H9.54687C9.08018 9 8.68203 9.33135 8.60527 9.7834C6.90283 19.8152 7.00127 19.1977 7.00098 19.3125C7.0001 19.8199 7.41963 20.25 7.95605 20.25H24.7941C25.3282 20.25 25.7466 19.8234 25.7489 19.3187C25.7495 19.1991 25.8471 19.8152 24.1446 9.7834ZM14.6123 10.875H18.1376L18.4238 13.6875H14.3261L14.6123 10.875ZM12.4101 18.375H9.08281L9.63975 15.0938H12.7443L12.4101 18.375ZM12.8873 13.6875H9.87822L10.3555 10.875H13.1735L12.8873 13.6875ZM13.8488 18.375L14.1828 15.0938H18.5671L18.9011 18.375H13.8488ZM19.5764 10.875H22.3944L22.8717 13.6875H19.8626L19.5764 10.875ZM20.3398 18.375L20.0059 15.0938H23.1104L23.6674 18.375H20.3398Z" fill="#2AA19C"/>
<circle cx="24.5" cy="8.5" r="3.5" fill="white"/>
<path d="M24.5003 6.4375C23.3637 6.4375 22.4377 7.36348 22.4377 8.5C22.4377 9.63652 23.3637 10.5625 24.5003 10.5625C25.6368 10.5625 26.5629 9.63652 26.5629 8.5C26.5629 7.36348 25.6368 6.4375 24.5003 6.4375ZM29.7943 8.16699L27.7596 7.15078L28.4794 4.99375C28.5761 4.70156 28.2989 4.42441 28.0088 4.52324L25.8517 5.24297L24.8333 3.20625C24.6958 2.93125 24.3047 2.93125 24.1672 3.20625L23.151 5.24082L20.9917 4.52109C20.6995 4.42441 20.4223 4.70156 20.5212 4.9916L21.2409 7.14863L19.2063 8.16699C18.9312 8.30449 18.9312 8.69551 19.2063 8.83301L21.2409 9.84922L20.5212 12.0084C20.4245 12.3006 20.7016 12.5777 20.9917 12.4789L23.1488 11.7592L24.1651 13.7937C24.3026 14.0687 24.6936 14.0687 24.8311 13.7937L25.8474 11.7592L28.0045 12.4789C28.2967 12.5756 28.5739 12.2984 28.4751 12.0084L27.7553 9.85137L29.79 8.83516C30.0693 8.69551 30.0693 8.30449 29.7943 8.16699ZM26.4447 10.4443C25.3726 11.5164 23.628 11.5164 22.5558 10.4443C21.4837 9.37227 21.4837 7.62773 22.5558 6.55566C23.628 5.48359 25.3726 5.48359 26.4447 6.55566C27.5168 7.62773 27.5168 9.37227 26.4447 10.4443Z" fill="#FCB712"/>
</svg>
