<svg xmlns="http://www.w3.org/2000/svg" viewBox="0 0 91.13 91.13"><defs><style>.cls-1{fill:#e9e9e9;}</style></defs><title>icon_330</title><g id="圖層_3" data-name="圖層 3"><path class="cls-1" d="M45.57,22.74A22.83,22.83,0,1,0,68.39,45.57,22.85,22.85,0,0,0,45.57,22.74Z"/><path class="cls-1" d="M45.57,16a4.46,4.46,0,0,1-4.46-4.45V4.45a4.46,4.46,0,0,1,8.91,0v7.13A4.45,4.45,0,0,1,45.57,16Z"/><path class="cls-1" d="M45.57,75.1a4.46,4.46,0,0,0-4.46,4.45v7.13a4.46,4.46,0,0,0,8.91,0V79.55A4.45,4.45,0,0,0,45.57,75.1Z"/><path class="cls-1" d="M66.45,24.68a4.45,4.45,0,0,1,0-6.3l5-5a4.45,4.45,0,0,1,6.3,6.29l-5,5A4.45,4.45,0,0,1,66.45,24.68Z"/><path class="cls-1" d="M24.68,66.45a4.45,4.45,0,0,0-6.3,0l-5,5a4.45,4.45,0,0,0,6.29,6.3l5-5A4.45,4.45,0,0,0,24.68,66.45Z"/><path class="cls-1" d="M75.1,45.57a4.46,4.46,0,0,1,4.45-4.46h7.13a4.46,4.46,0,0,1,0,8.91H79.55A4.45,4.45,0,0,1,75.1,45.57Z"/><path class="cls-1" d="M16,45.57a4.46,4.46,0,0,0-4.45-4.46H4.45a4.46,4.46,0,0,0,0,8.91h7.13A4.45,4.45,0,0,0,16,45.57Z"/><path class="cls-1" d="M66.45,66.45a4.47,4.47,0,0,1,6.3,0l5,5a4.45,4.45,0,0,1-6.3,6.3l-5-5A4.45,4.45,0,0,1,66.45,66.45Z"/><path class="cls-1" d="M24.68,24.68a4.45,4.45,0,0,0,0-6.3l-5-5a4.45,4.45,0,0,0-6.29,6.29l5,5A4.45,4.45,0,0,0,24.68,24.68Z"/></g></svg>