<svg xmlns="http://www.w3.org/2000/svg" viewBox="0 0 101.41 76.27"><defs><style>.cls-1{fill:#9f253a;}</style></defs><title>icon_160</title><g id="圖層_3" data-name="圖層 3"><path class="cls-1" d="M92.13,24.35H39.47a9.31,9.31,0,0,0-9.28,9.28V67a9.31,9.31,0,0,0,9.28,9.28H92.13A9.31,9.31,0,0,0,101.41,67V33.63A9.29,9.29,0,0,0,92.13,24.35Zm4.29,42.77a3.38,3.38,0,0,1-3.37,3.36H39.36A3.37,3.37,0,0,1,36,67.12V43.64H96.42Zm0-32.32H36V33.53a3.38,3.38,0,0,1,3.36-3.37H93.05a3.38,3.38,0,0,1,3.37,3.37Z"/><path class="cls-1" d="M38.8,18.63H71.46L64.82,5.17A9.3,9.3,0,0,0,52.36,1L5.17,24.29A9.3,9.3,0,0,0,1,36.75L15.76,66.66A9.31,9.31,0,0,0,26.53,71.5a13.89,13.89,0,0,1-2-7.16V32.88A14.27,14.27,0,0,1,38.8,18.63Z"/><path class="cls-1" d="M45.51,66.86a5.93,5.93,0,0,0,4.55-2.11,6,6,0,1,0,0-7.81,6,6,0,1,0-4.55,9.92Z"/></g></svg>