<svg width="20" height="21" viewBox="0 0 20 21" fill="none" xmlns="http://www.w3.org/2000/svg">
<path d="M17.5814 3.48479L16.8688 4.19807C18.1974 5.7692 19.0001 7.79991 19.0001 10.0151C19.0001 13.9152 16.5139 17.244 13.0459 18.4972L13.3061 19.4695C17.2039 18.1022 20.0001 14.3859 20.0001 10.0151C20.0001 7.51988 19.0889 5.23793 17.5814 3.48479Z" fill="#FFEB93"/>
<path d="M10 19.0289C5.03766 19.0289 1.00005 14.9856 1.00005 10.0153C1.00005 9.46959 1.04904 8.93503 1.14194 8.41615L0.172743 8.15586C0.0600863 8.75838 0 9.37984 0 10.0153C0 15.5466 4.47717 20.0305 10 20.0305C10.6345 20.0305 11.255 19.9708 11.8566 19.8576L11.5971 18.8869C11.0786 18.9804 10.5449 19.0289 10 19.0289Z" fill="#FFEB93"/>
<path d="M10.0001 1.00158C12.212 1.00158 14.2396 1.80545 15.8083 3.13607L16.521 2.42239C14.7701 0.913061 12.4916 3.28109e-06 10.0001 3.28109e-06C5.63603 3.28109e-06 1.92535 2.80044 0.560547 6.7046L1.53102 6.96484C2.78228 3.49153 6.10602 1.00158 10.0001 1.00158Z" fill="#FFEB93"/>
<path d="M17.5002 10.0153C17.5002 5.86688 14.1423 2.50394 10.0003 2.50394C9.36248 2.50394 8.74363 2.58424 8.15234 2.73456L8.49734 3.68339C8.9801 3.5681 9.483 3.50551 10.0003 3.50551C13.5843 3.50551 16.5001 6.42576 16.5001 10.0153C16.5001 10.1442 16.4956 10.2714 16.4882 10.3983L17.4776 10.5732C17.4911 10.3888 17.5002 10.2031 17.5002 10.0153Z" fill="#FFEB93"/>
<ellipse cx="9.97316" cy="9.97291" rx="7.54054" ry="7.54054" fill="#FFEB93"/>
<path d="M12.7057 8.49836H10.7869L11.4952 6.34005C11.5617 6.08731 11.3705 5.83789 11.1095 5.83789H8.71503C8.5155 5.83789 8.34589 5.98588 8.31929 6.18375L7.78719 10.1745C7.7556 10.4139 7.94183 10.6267 8.18294 10.6267H10.1567L9.39013 13.8609C9.33027 14.1136 9.52315 14.3514 9.77756 14.3514C9.91723 14.3514 10.0503 14.2782 10.1234 14.1519L13.0499 9.09697C13.2046 8.83259 13.0134 8.49836 12.7057 8.49836Z" fill="black"/>
</svg>
